<svg width="236" height="70" viewBox="0 0 236 70" fill="none" xmlns="http://www.w3.org/2000/svg">
<g clip-path="url(#clip0_981_42)">
<mask id="mask0_981_42" style="mask-type:luminance" maskUnits="userSpaceOnUse" x="0" y="0" width="236" height="70">
<path d="M236 0H0V70H236V0Z" fill="white"/>
</mask>
<g mask="url(#mask0_981_42)">
<mask id="mask1_981_42" style="mask-type:luminance" maskUnits="userSpaceOnUse" x="0" y="0" width="236" height="70">
<path d="M236 0H0V70H236V0Z" fill="white"/>
</mask>
<g mask="url(#mask1_981_42)">
<g opacity="0.98">
<path opacity="0.98" d="M77.0641 55.9346H83.8601C85.0782 55.9346 85.6552 56.3492 85.6552 57.4654V59.3152C85.6552 60.4314 85.0782 60.846 83.8601 60.846H82.8022L86.4566 63.8439H83.796L80.5903 60.846H78.8272V63.8439H77V55.9346H77.0641ZM78.8913 57.3059V59.5065H83.0587C83.6357 59.5065 83.8921 59.4108 83.8921 58.8687V57.9119C83.8921 57.4016 83.6357 57.274 83.0587 57.274H78.8913V57.3059Z" fill="black"/>
<path opacity="0.98" d="M89.1173 57.0826H96.0736V58.2307H90.7201V59.7297H93.8617V60.8778H90.7201V62.5681H96.1697V63.8438H89.1173V57.0826Z" fill="black"/>
<path opacity="0.98" d="M100.818 58.2627V59.7297H105.049C106.332 59.7297 106.748 60.0487 106.748 61.3244V62.2492C106.748 63.5249 106.332 63.8438 105.049 63.8438H100.85C99.5677 63.8438 99.1509 63.5249 99.1509 62.2492V62.0579L100.561 61.7708V62.5682H105.37V61.0373H101.138C99.8562 61.0373 99.4395 60.7184 99.4395 59.4427V58.7092C99.4395 57.4335 99.8562 57.1146 101.138 57.1146H104.985C106.203 57.1146 106.684 57.4335 106.684 58.5816V58.7411L105.274 59.06V58.2627H100.818Z" fill="black"/>
<path opacity="0.98" d="M113.512 63.8438H111.942V58.2945H108.832V57.0826H116.654V58.2945H113.512V63.8438Z" fill="black"/>
<path opacity="0.98" d="M120.533 57.0826H122.071L125.95 63.8438H124.187L123.386 62.3767H119.09L118.289 63.8438H116.686L120.533 57.0826ZM122.68 61.1648L121.206 58.4221L119.699 61.1648H122.68Z" fill="black"/>
<path opacity="0.98" d="M129.733 62.5681H134.221V57.0826H135.792V62.2492C135.792 63.5248 135.375 63.8438 134.093 63.8438H129.829C128.547 63.8438 128.13 63.5248 128.13 62.2492V57.0826H129.701V62.5681H129.733Z" fill="black"/>
<path opacity="0.98" d="M139.606 57.0826H145.409C146.434 57.0826 146.947 57.4334 146.947 58.3902V59.9848C146.947 60.9416 146.466 61.2924 145.409 61.2924H144.511L147.652 63.8438H145.376L142.652 61.2924H141.145V63.8438H139.606V57.0826ZM141.177 58.2626V60.1443H144.735C145.216 60.1443 145.441 60.0486 145.441 59.6021V58.8048C145.441 58.3583 145.216 58.2626 144.735 58.2626H141.177Z" fill="black"/>
<path opacity="0.98" d="M152.557 57.0826H154.096L157.974 63.8438H156.211L155.41 62.3767H151.114L150.313 63.8438H148.742L152.557 57.0826ZM154.737 61.1648L153.262 58.4221L151.756 61.1648H154.737Z" fill="black"/>
<path opacity="0.98" d="M160.475 57.0826H161.565L166.341 61.0691C166.63 61.2924 166.886 61.5156 167.111 61.8027C167.079 61.2286 167.047 60.8459 167.047 60.6226V57.0826H168.457V63.8438H167.367L162.366 59.6659C162.174 59.5064 161.982 59.3151 161.789 59.1237C161.853 59.634 161.853 60.0167 161.853 60.208V63.8757H160.443V57.0826H160.475Z" fill="black"/>
<path opacity="0.98" d="M175.413 63.8438H173.843V58.2945H170.733V57.0826H178.555V58.2945H175.413V63.8438Z" fill="black"/>
<path opacity="0.98" d="M186.409 61.994V61.4519C186.409 60.6546 186.697 60.3994 187.402 59.9848L189.005 59.0281C188.556 58.6453 188.332 58.2945 188.332 57.848V57.4015C188.332 56.2534 188.941 55.9664 190.288 55.9664H191.89C193.333 55.9664 193.846 56.2853 193.846 57.561V58.0394L192.403 58.2945V57.2421H189.807V57.8161L193.557 60.9097L195.417 59.3789L196.474 60.2719L194.647 61.8027L197.148 63.9076H194.743L193.429 62.7913L192.724 63.4292C192.211 63.8757 191.89 63.9076 191.217 63.9076H188.396C186.89 63.8438 186.409 63.4611 186.409 61.994ZM191.634 62.4724L192.371 61.8346L189.999 59.8573L187.979 61.1011V62.4405H191.634V62.4724Z" fill="black"/>
<path opacity="0.98" d="M205.675 55.9346H212.471C213.689 55.9346 214.266 56.3492 214.266 57.4654V58.4222C214.266 59.1876 213.785 59.6341 212.887 59.7616C213.817 59.8892 214.33 60.4314 214.33 61.2925V62.313C214.33 63.3655 213.56 63.8439 211.99 63.8439H205.675V55.9346ZM207.502 57.2422V59.1238H211.701C212.278 59.1238 212.535 59.0281 212.535 58.5497V57.7843C212.535 57.3378 212.246 57.2103 211.701 57.2103H207.502V57.2422ZM207.502 60.4314V62.4406H211.701C212.342 62.4406 212.599 62.313 212.599 61.739V61.133C212.599 60.559 212.342 60.4314 211.701 60.4314H207.502Z" fill="black"/>
<path opacity="0.98" d="M220.132 57.0826H221.671L225.55 63.8438H223.787L222.985 62.3767H218.69L217.888 63.8438H216.317L220.132 57.0826ZM222.312 61.1648L220.837 58.4221L219.331 61.1648H222.312Z" fill="black"/>
<path opacity="0.98" d="M227.954 57.0826H233.756C234.782 57.0826 235.295 57.4334 235.295 58.3902V59.9848C235.295 60.9416 234.814 61.2924 233.756 61.2924H232.858L236 63.8438H233.724L230.999 61.2924H229.492V63.8438H227.954V57.0826ZM229.492 58.2626V60.1443H233.051C233.532 60.1443 233.756 60.0486 233.756 59.6021V58.8048C233.756 58.3583 233.532 58.2626 233.051 58.2626H229.492Z" fill="black"/>
</g>
<path d="M36.5798 48.3849C37.2313 47.834 37.7851 46.797 38.2085 45.2415C38.3388 44.7229 38.5017 44.0424 38.6645 43.135L40.9772 44.01C40.6841 44.7878 40.4235 45.5007 40.1629 46.1488C39.9349 46.797 39.7069 47.5099 39.4789 48.2877C39.2509 49.0978 39.0554 49.746 38.9251 50.2321C38.7948 50.7506 38.6645 51.3663 38.5342 52.1441C35.8307 52.1441 33.5505 52.1116 31.6938 52.0468C29.8372 51.982 27.7525 51.9172 25.4398 51.8524C23.1271 51.7876 21.0749 51.7552 19.2508 51.7552C18.3388 51.7552 16.8078 51.8524 14.5603 52.0144C13.2899 52.1116 12.3127 52.1441 11.6287 52.1441V49.9728H14.1368C14.658 49.9728 15.0814 49.908 15.3746 49.8108C15.6678 49.7136 15.9935 49.4867 16.3192 49.1302C16.645 48.7738 16.873 48.3201 17.0033 47.7368C17.1336 47.1534 17.1987 46.4729 17.1987 45.6951V26.8669C17.1987 25.0198 17.1336 23.6587 17.0358 22.8809C16.8404 21.6171 16.4821 20.7097 15.9609 20.1912C15.7003 19.9319 15.342 19.7699 14.8534 19.6727C14.3648 19.5754 13.9088 19.5106 13.4202 19.5106H11.6938V17.3394C13.1596 17.5338 14.4625 17.6635 15.5375 17.7607C16.6124 17.8579 17.8502 17.8903 19.2183 17.8903C20.7166 17.8903 22.0196 17.8579 23.1596 17.8255C24.2671 17.7931 25.7981 17.6311 27.7525 17.3718V19.6079H25.2117C24.7883 19.6079 24.3323 19.6079 23.9414 19.6079C23.5831 19.6403 23.1922 19.8023 22.8013 20.0615C22.1824 20.4828 21.759 21.0662 21.5635 21.8115C21.3681 22.5569 21.2378 23.529 21.2378 24.6633V41.9684C21.2378 43.5887 21.3681 44.9822 21.6613 46.1488C21.9544 47.3155 22.5082 48.1256 23.3551 48.5793C23.974 48.9358 24.9512 49.2275 26.2867 49.4543C27.6222 49.6812 29.0228 49.8108 30.5538 49.8108C31.9544 49.8108 33.1596 49.7136 34.1694 49.4867C35.1792 49.2599 35.9609 48.9034 36.5798 48.3849Z" fill="#AB00FF"/>
<path d="M43.3551 19.5106V17.3394C44.658 17.5338 45.9284 17.6635 47.1336 17.7607C48.3388 17.8579 49.6092 17.8903 50.9121 17.8903C52.3779 17.8903 53.6157 17.8579 54.6906 17.7931C55.733 17.7283 57.0033 17.5986 58.4691 17.3718V19.6079H55.961C55.5375 19.6079 55.1792 19.6403 54.9512 19.7051C54.7232 19.7699 54.3975 19.8995 54.0717 20.1264C53.7134 20.3532 53.4528 20.7097 53.2574 21.2282C53.062 21.7467 52.9642 22.5893 52.9642 23.7883C52.9642 24.2096 52.9642 24.5012 52.9642 24.7281V42.0332C52.9642 43.5887 53.062 45.047 53.2574 46.4729C53.4528 47.8988 53.7134 48.8062 54.0717 49.1626C54.6581 49.8108 55.505 50.1348 56.6125 50.1348H58.86V52.1765C57.6548 52.0468 56.3844 51.982 55.0164 51.8848C53.6483 51.7876 52.3128 51.7876 51.0098 51.7876C48.632 51.7876 46.0913 51.9172 43.3877 52.1765V50.0052H45.8632C46.3844 50.0052 46.7753 49.9404 47.101 49.8432C47.4268 49.746 47.7525 49.5191 48.0457 49.1626C48.3714 48.8062 48.5668 48.3525 48.6971 47.7692C48.8274 47.1858 48.8926 46.5053 48.8926 45.76V26.8669C48.8926 24.7605 48.8274 23.2374 48.6971 22.2652C48.4691 20.6449 48.0457 19.7699 47.4593 19.6403C46.873 19.5106 46.2541 19.4782 45.7004 19.4782H43.3551V19.5106Z" fill="#AB00FF"/>
<path opacity="0.98" d="M4.07167 37.5286H0C1.27036 54.8985 15.2443 68.7686 32.7362 70V65.9492C17.4919 64.7501 5.34203 52.6625 4.07167 37.5286ZM0.0325735 32.0195H4.10424C5.5049 17.0153 17.5896 5.12206 32.7036 3.92301V-0.127808C15.342 1.10364 1.43323 14.8116 0.0325735 32.0195ZM66.417 37.5286C65.1793 52.5329 53.2248 64.5233 38.176 65.9168V69.9676C55.4724 68.5417 69.2184 54.7689 70.4887 37.5286H66.417ZM66.3845 32.0195H70.4561C69.0555 14.9412 55.3421 1.29808 38.176 -0.0954005V3.95542C53.0946 5.3489 64.9838 17.1773 66.3845 32.0195Z" fill="#AB00FF"/>
<g opacity="0.98">
<path opacity="0.98" d="M96.0443 44.097C96.5487 43.6264 96.9586 42.7481 97.3055 41.4306C97.4001 40.9915 97.5262 40.3955 97.6523 39.6426L99.418 40.3641C99.1973 41.0228 98.9766 41.6188 98.8189 42.1835C98.6297 42.7167 98.4721 43.3441 98.2829 44.0029C98.0937 44.693 97.9676 45.2263 97.873 45.6654C97.7784 46.1046 97.6838 46.6379 97.5577 47.2966C95.4767 47.2966 93.7426 47.2652 92.3237 47.2339C90.9048 47.1711 89.2968 47.1398 87.5626 47.077C85.7969 47.0143 84.2204 46.9829 82.8331 46.9829C82.1394 46.9829 80.9413 47.0456 79.2386 47.2025C78.2612 47.2966 77.536 47.328 77 47.328V45.4772H78.8918C79.3017 45.4772 79.617 45.4458 79.8377 45.3517C80.0584 45.2576 80.3107 45.0694 80.5629 44.7871C80.8152 44.5048 81.0043 44.097 81.0989 43.6264C81.1935 43.1245 81.2566 42.5599 81.2566 41.9012V25.7776C81.2566 24.1778 81.2251 23.0485 81.1305 22.3584C81.0043 21.2919 80.7206 20.5076 80.3107 20.0685C80.1215 19.8489 79.8377 19.692 79.4594 19.5979C79.081 19.5038 78.7342 19.4725 78.3873 19.4725H77.0631V17.6217C78.1981 17.7785 79.1756 17.904 79.9954 17.9668C80.8152 18.0609 81.7611 18.0922 82.8016 18.0922C83.9366 18.0922 84.9456 18.0922 85.7969 18.0609C86.6482 18.0295 87.8149 17.904 89.2968 17.6531V19.5666H87.3734C87.0266 19.5666 86.7113 19.5666 86.396 19.5666C86.1122 19.5979 85.8285 19.7234 85.5132 19.943C85.0402 20.2881 84.7249 20.79 84.5673 21.4487C84.4096 22.1074 84.315 22.923 84.315 23.8955V38.6388C84.315 40.019 84.4096 41.211 84.6618 42.1835C84.8826 43.1873 85.324 43.8774 85.9546 44.2538C86.4275 44.5361 87.1843 44.7871 88.1932 44.9753C89.2022 45.1635 90.3058 45.2576 91.4408 45.2576C92.5129 45.2576 93.4588 45.1635 94.2155 45.0067C94.9722 44.8498 95.5713 44.5361 96.0443 44.097Z" fill="black"/>
<path opacity="0.98" d="M103.075 27.0009L99.2919 27.7224V25.9657C100.395 25.8402 100.995 25.7775 101.152 25.7461C101.657 25.6834 102.256 25.4952 103.012 25.2442L106.796 23.8013L105.22 47.2651L101.877 48.0807C102.193 45.6026 102.445 43.5322 102.634 41.807C102.823 40.113 102.886 38.5446 102.886 37.1644C102.886 35.4705 102.918 33.557 102.981 31.3612C103.044 29.2281 103.075 27.7537 103.075 27.0009Z" fill="black"/>
<path opacity="0.98" d="M110.264 25.9658C110.327 25.3384 110.391 24.7424 110.454 24.115L110.737 19.3783L114.08 18.5627L113.512 24.115C113.386 24.7424 113.26 25.3384 113.134 25.9658C113.102 26.0599 113.039 27.1892 112.944 29.3536C112.755 33.9962 112.661 37.4781 112.661 39.768C112.661 41.9952 112.755 43.3755 112.913 43.9401C113.197 44.9753 113.89 45.5085 115.025 45.5085C115.845 45.5085 116.57 45.1007 117.264 44.2852C118.052 43.3127 118.431 42.0893 118.431 40.5836V39.9876H119.66V40.6777C119.66 42.2148 119.345 43.5009 118.746 44.5988C118.147 45.6654 117.264 46.481 116.129 46.9829C115.688 47.2025 115.278 47.3593 114.868 47.422C114.489 47.4848 114.048 47.5475 113.607 47.5475C112.787 47.5475 112.03 47.422 111.336 47.1711C110.485 46.8574 109.918 46.5123 109.571 46.1673V35.596C109.571 33.9648 109.634 32.365 109.76 30.7652C110.012 28.7576 110.17 27.1578 110.264 25.9658Z" fill="black"/>
<path opacity="0.98" d="M122.214 25.9658C122.277 25.3384 122.34 24.7424 122.404 24.115L122.687 19.3783L126.03 18.5627L125.462 24.115C125.336 24.7424 125.21 25.3384 125.084 25.9658C125.052 26.0599 124.989 27.1892 124.894 29.3536C124.705 33.9962 124.611 37.4781 124.611 39.768C124.611 41.9952 124.705 43.3755 124.863 43.9401C125.147 44.9753 125.84 45.5085 126.975 45.5085C127.795 45.5085 128.52 45.1007 129.214 44.2852C130.002 43.3127 130.381 42.0893 130.381 40.5836V39.9876H131.61V40.6777C131.61 42.2148 131.295 43.5009 130.696 44.5988C130.097 45.6654 129.214 46.481 128.079 46.9829C127.638 47.2025 127.228 47.3593 126.818 47.422C126.439 47.4848 125.998 47.5475 125.557 47.5475C124.737 47.5475 123.98 47.422 123.286 47.1711C122.435 46.8574 121.868 46.5123 121.521 46.1673V35.596C121.521 33.9648 121.584 32.365 121.71 30.7652C121.962 28.7576 122.12 27.1578 122.214 25.9658Z" fill="black"/>
<path opacity="0.98" d="M136.214 45.2576L140.313 44.442V46.5123C140.06 46.5123 139.524 46.5437 138.768 46.6064C138.011 46.6692 137.286 46.7633 136.687 46.8887C136.056 47.0142 135.394 47.2024 134.669 47.4534C133.944 47.7043 133.313 47.9866 132.745 48.2376L133.124 40.9914C133.124 38.3878 133.155 36.2547 133.187 34.5608C133.218 32.8983 133.281 31.4239 133.345 30.2005C133.345 30.0751 133.471 28.3184 133.754 24.9306C134.133 20.3507 134.543 16.5238 134.984 13.4496C135.426 10.3755 136.151 6.57984 137.097 2H141.826V3.44296C141.259 4.07034 140.691 4.69772 140.155 5.32509C139.524 6.57984 138.925 8.4306 138.389 10.846C137.916 12.9163 137.507 16.8688 137.128 22.7348C136.844 27.1891 136.624 31.9886 136.435 37.133C136.245 42.3403 136.182 45.038 136.214 45.2576Z" fill="black"/>
<path opacity="0.98" d="M153.24 38.9211L154.596 39.1406C154.596 39.8308 154.47 40.6777 154.186 41.6815C153.713 43.2813 153.019 44.5988 152.074 45.634C150.749 47.0142 149.047 47.7357 146.997 47.7357C144.853 47.7357 143.245 46.7946 142.142 44.8811C141.164 43.1872 140.691 40.9287 140.691 38.0741C140.691 34.1844 141.259 30.922 142.362 28.3498C143.75 25.1502 145.799 23.5504 148.479 23.5504C150.245 23.5504 151.538 24.1777 152.389 25.4639C153.114 26.5618 153.492 28.0361 153.492 29.8869C153.492 31.173 153.303 32.4905 152.956 33.8707C152.01 34.2157 151.222 34.4981 150.592 34.6863C149.961 34.8745 149.204 35.0941 148.321 35.2823C147.439 35.5019 146.682 35.6587 146.02 35.7528C145.358 35.8469 144.664 35.941 143.876 36.0351C143.813 36.0979 143.781 36.6311 143.781 37.6349C143.781 39.5798 144.033 41.211 144.538 42.5285C145.295 44.442 146.556 45.4144 148.29 45.4144C149.646 45.4144 150.812 44.8184 151.79 43.6578C152.767 42.4971 153.24 41.1169 153.24 39.5798C153.24 39.2034 153.24 39.0465 153.24 38.9211ZM143.876 34.404L147.817 33.7138C148.731 33.5256 149.457 33.0237 149.993 32.1768C150.497 31.3298 150.781 30.326 150.781 29.1654C150.781 29.0399 150.781 28.9458 150.781 28.8203C150.749 28.6635 150.718 28.538 150.718 28.4753C150.592 27.095 150.434 26.2794 150.308 25.9658C149.993 25.1502 149.362 24.7737 148.385 24.7737C146.934 24.7737 145.768 26.0912 144.885 28.7576C144.223 30.7652 143.876 32.5218 143.876 34.0903C143.876 34.1844 143.876 34.2785 143.876 34.3726C143.876 34.3412 143.876 34.3726 143.876 34.404Z" fill="black"/>
<path opacity="0.98" d="M163.298 19.5038V17.653C164.307 17.8099 165.285 17.9353 166.199 17.9981C167.113 18.0922 168.091 18.1235 169.1 18.1235C170.203 18.1235 171.181 18.0922 171.969 18.0294C172.789 17.9667 173.735 17.8412 174.838 17.6844V19.5979H172.915C172.568 19.5979 172.316 19.6292 172.127 19.6606C171.938 19.7234 171.717 19.8175 171.465 20.0057C171.212 20.1939 170.992 20.5076 170.834 20.9467C170.676 21.3859 170.613 22.1074 170.613 23.1112C170.613 23.4562 170.613 23.7386 170.613 23.8954V38.6387C170.613 39.9562 170.676 41.211 170.834 42.4344C170.992 43.6577 171.181 44.4106 171.465 44.7243C171.906 45.2889 172.568 45.5399 173.388 45.5399H175.122V47.2652C174.208 47.1711 173.23 47.0769 172.19 47.0456C171.149 46.9828 170.14 46.9515 169.131 46.9515C167.303 46.9515 165.379 47.0456 163.298 47.2652V45.4144H165.19C165.568 45.4144 165.884 45.383 166.136 45.2889C166.388 45.1948 166.609 45.0066 166.861 44.7243C167.113 44.442 167.271 44.0342 167.366 43.5323C167.46 43.0304 167.523 42.4657 167.523 41.807V25.7775C167.523 23.9895 167.46 22.7034 167.366 21.8878C167.176 20.5076 166.861 19.7547 166.42 19.6606C165.947 19.5665 165.505 19.5038 165.064 19.5038H163.298Z" fill="black"/>
<path opacity="0.98" d="M191.865 46.5438C190.887 46.8888 189.941 47.3594 188.964 48.0181L188.333 47.3907C188.68 45.6655 188.838 44.7871 188.869 44.7244C188.964 44.097 189.059 43.4696 189.153 42.8423C189.374 41.1483 189.563 39.2035 189.689 36.9449C189.815 34.6864 189.878 32.8042 189.941 31.2672C189.973 29.7301 190.004 28.5067 190.036 27.6284C189.941 27.7225 189.531 28.2558 188.775 29.2282C187.986 30.2634 187.135 31.3926 186.284 32.6474C185.212 34.1845 184.361 35.4392 183.793 36.4117C182.816 38.0428 182.027 39.7681 181.46 41.5561C181.081 42.7481 180.766 44.097 180.514 45.54C180.419 46.136 180.356 46.7006 180.262 47.2966H177.582L178.59 26.8128L175.154 27.6284V25.7463C175.91 25.7463 176.478 25.7149 176.856 25.6835C177.235 25.6208 177.771 25.5267 178.401 25.3385C179.757 24.962 181.081 24.3033 182.311 23.3936L180.829 38.827C181.46 37.5096 182.248 36.0352 183.194 34.4354C184.14 32.8042 184.96 31.5495 185.653 30.6084C186.473 29.5105 187.293 28.4126 188.144 27.2833C188.995 26.154 189.878 25.0875 190.856 24.021H193.252L192.243 44.5989L195.396 44.0656V45.8223C194.734 45.8223 194.198 45.885 193.725 45.9791C193.284 46.0732 192.685 46.2615 191.865 46.5438Z" fill="black"/>
<path opacity="0.98" d="M196.405 15.269L195.837 14.0143L199.936 11.7557L201.513 13.4183C203.216 15.2063 204.54 16.7747 205.454 18.1236C206.495 19.6607 207.472 21.5742 208.387 23.8327C208.796 24.8679 209.175 25.9972 209.459 27.3147C209.805 28.8831 209.995 30.3574 209.995 31.769V35.2823C209.995 36.1607 209.9 37.0704 209.742 38.0742C209.522 39.1407 209.364 39.9249 209.301 40.3641C209.206 40.8032 208.923 41.462 208.481 42.3403C207.945 43.3755 207.409 44.0342 206.905 44.3479L202.459 47.1397C202.144 47.3279 201.765 47.4848 201.261 47.6103C200.756 47.7357 200.252 47.7985 199.684 47.7985C199.432 47.7985 199.211 47.7985 199.085 47.7671C197.666 47.5789 196.626 46.4496 195.932 44.442C195.396 42.8422 195.112 40.8032 195.112 38.3878C195.112 35.3137 195.711 32.3337 196.941 29.4791C198.171 26.5932 199.59 24.8365 201.229 24.2091L202.522 23.7072C202.68 23.6445 202.837 23.6131 202.995 23.6131C203.247 23.6131 203.436 23.6759 203.499 23.8327C203.562 23.9896 203.594 24.115 203.594 24.2091C203.594 24.5542 203.436 24.8052 203.153 24.9306L201.671 25.6207C200.819 26.0285 200.031 27.5029 199.337 30.0124C198.644 32.5219 198.328 35 198.328 37.4781C198.328 40.5209 198.675 42.6854 199.337 43.9401C199.936 45.038 200.756 45.5713 201.86 45.5713C203.657 45.5713 205.013 44.442 205.896 42.2148C206.621 40.3641 206.968 37.8859 206.968 34.7804C206.968 31.3299 206.337 27.9734 205.107 24.711C204.035 21.8879 202.68 19.5352 201.04 17.6531C199.527 15.8964 198.234 15.0808 197.193 15.2063L196.405 15.269Z" fill="black"/>
<path opacity="0.98" d="M213.904 27.0009L210.121 27.7224V25.9658C211.224 25.8403 211.823 25.7776 211.981 25.7462C212.485 25.6835 213.084 25.4952 213.841 25.2443L217.625 23.8013L216.048 47.2652L212.706 48.0808C213.021 45.6026 213.274 43.5323 213.463 41.807C213.652 40.1131 213.715 38.5447 213.715 37.1644C213.715 35.4705 213.747 33.557 213.81 31.3612C213.873 29.2281 213.904 27.7538 213.904 27.0009ZM212.17 17.8726C212.075 17.1198 212.328 16.461 212.864 15.8964C213.4 15.3318 214.093 15.0181 214.945 15.0181C215.701 15.0181 216.332 15.269 216.837 15.7709C217.373 16.2728 217.625 16.8688 217.625 17.5276C217.625 18.2491 217.341 18.8764 216.742 19.4097C216.143 19.943 215.449 20.2253 214.629 20.2253C213.999 20.2253 213.431 19.9743 212.927 19.5038C212.422 19.0333 212.17 18.5 212.17 17.8726ZM102.161 17.8726C102.067 17.1198 102.319 16.461 102.855 15.8964C103.391 15.3318 104.084 15.0181 104.936 15.0181C105.693 15.0181 106.323 15.269 106.828 15.7709C107.364 16.2728 107.616 16.8688 107.616 17.5276C107.616 18.2491 107.332 18.8764 106.733 19.4097C106.134 19.943 105.44 20.2253 104.62 20.2253C103.99 20.2253 103.422 19.9743 102.918 19.5038C102.413 19.0333 102.161 18.5 102.161 17.8726Z" fill="black"/>
<path opacity="0.98" d="M233.516 33.9021C233.516 35.251 233.453 36.7253 233.358 38.2624C233.264 39.8308 233.169 41.4306 233.043 43.1245C233.043 43.6892 233.075 44.0656 233.169 44.2852C233.264 44.5048 233.39 44.5675 233.611 44.4734C233.8 44.4107 234.021 44.3793 234.304 44.3166C234.588 44.2852 234.809 44.2224 234.998 44.1597L235.849 43.846L236.417 45.0694C235.156 45.3204 233.958 45.6968 232.791 46.1987C232.381 46.3555 232.003 46.5437 231.687 46.7633C230.773 47.2966 230.268 47.6103 230.111 47.6417C229.922 47.7044 229.859 47.5475 229.859 47.2339C229.859 47.0143 229.953 46.1359 230.174 44.6302C230.395 43.0932 230.521 42.058 230.584 41.462C230.647 40.866 230.678 40.2386 230.678 39.5171C230.71 38.827 230.71 38.4506 230.71 38.3879C230.71 38.0742 230.71 37.7605 230.71 37.4154C230.71 37.0704 230.71 36.7253 230.71 36.3489C230.71 36.2234 230.71 36.0979 230.71 36.0352L226.989 42.8109C226.233 44.1911 225.287 45.3204 224.152 46.2301C222.985 47.1398 221.913 47.5789 220.841 47.5789C219.895 47.5789 219.233 47.0143 218.791 45.8536C218.476 44.9753 218.318 43.7833 218.318 42.3403C218.318 39.674 219.044 36.788 220.463 33.6825C221.724 30.9221 223.3 28.538 225.161 26.4991C227.021 24.4915 228.534 23.4563 229.764 23.4563C230.048 23.4563 230.332 23.4877 230.615 23.5504C230.899 23.6131 231.183 23.7072 231.467 23.77L234.525 23.4563C234.273 25.4639 234.052 27.4088 233.863 29.3223C233.611 31.2985 233.516 32.8042 233.516 33.9021ZM230.111 25.2443C229.985 25.1816 229.827 25.1188 229.638 25.1188C228.787 25.1188 227.651 25.9031 226.327 27.4401C224.971 29.0086 223.836 30.8907 222.89 33.0865C221.818 35.6274 221.282 37.9487 221.282 40.1131C221.282 41.2424 221.377 42.0266 221.535 42.4972C221.818 43.3128 222.354 43.7206 223.143 43.7206C224.089 43.7206 225.129 42.9677 226.201 41.4934C227.147 40.2072 228.03 38.5447 228.913 36.5057C229.606 34.8118 230.237 33.0552 230.773 31.173C230.868 30.828 230.994 30.3574 231.088 29.6987C231.183 29.0399 231.246 28.4753 231.246 27.9734C231.246 27.3147 231.151 26.75 230.994 26.2795C230.773 25.809 230.489 25.4639 230.111 25.2443Z" fill="black"/>
</g>
<path d="M138.411 28.2792H115.778C115.778 27.8709 115.778 27.4625 115.778 27.0542C117.156 26.85 118.3 26.7042 119.062 26.6167C119.062 26.6167 126.948 26.6167 137.004 26.6167C137.092 26.6167 137.59 26.6167 138 27.025C138.206 27.2292 138.323 27.4917 138.352 27.6084C138.47 27.9 138.44 28.1625 138.411 28.2792Z" fill="black"/>
</g>
</g>
</g>
<defs>
<clipPath id="clip0_981_42">
<rect width="236" height="70" fill="white"/>
</clipPath>
</defs>
</svg>
