<svg width="71" height="71" viewBox="0 0 71 71" fill="none" xmlns="http://www.w3.org/2000/svg">
<g clip-path="url(#clip0_1010_44)">
<path d="M36.5798 48.514C37.2313 47.9631 37.7851 46.9261 38.2085 45.3705C38.3388 44.8519 38.5017 44.1714 38.6645 43.2639L40.9772 44.139C40.6841 44.9168 40.4235 45.6297 40.1629 46.2778C39.9349 46.926 39.7069 47.639 39.4789 48.4168C39.2509 49.2269 39.0554 49.8751 38.9251 50.3613C38.7948 50.8798 38.6645 51.4955 38.5342 52.2733C35.8307 52.2733 33.5505 52.2408 31.6938 52.176C29.8372 52.1112 27.7525 52.0464 25.4398 51.9816C23.1271 51.9168 21.0749 51.8844 19.2508 51.8844C18.3388 51.8844 16.8078 51.9816 14.5603 52.1436C13.2899 52.2408 12.3127 52.2733 11.6287 52.2733V50.1019H14.1368C14.658 50.1019 15.0814 50.0371 15.3746 49.9399C15.6678 49.8427 15.9935 49.6158 16.3192 49.2593C16.645 48.9029 16.873 48.4492 17.0033 47.8659C17.1336 47.2825 17.1987 46.6019 17.1987 45.8241V26.9953C17.1987 25.1482 17.1336 23.787 17.0358 23.0092C16.8404 21.7454 16.4821 20.8379 15.9609 20.3194C15.7003 20.0601 15.342 19.8981 14.8534 19.8009C14.3648 19.7036 13.9088 19.6388 13.4202 19.6388H11.6938V17.4675C13.1596 17.6619 14.4625 17.7916 15.5375 17.8888C16.6124 17.986 17.8502 18.0184 19.2183 18.0184C20.7166 18.0184 22.0196 17.986 23.1596 17.9536C24.2671 17.9212 25.7981 17.7592 27.7525 17.4999V19.7361H25.2117C24.7883 19.7361 24.3323 19.7361 23.9414 19.7361C23.5831 19.7685 23.1922 19.9305 22.8013 20.1897C22.1824 20.611 21.759 21.1944 21.5635 21.9398C21.3681 22.6852 21.2378 23.6573 21.2378 24.7917V42.0973C21.2378 43.7176 21.3681 45.1112 21.6613 46.2778C21.9544 47.4446 22.5082 48.2547 23.3551 48.7084C23.974 49.0649 24.9512 49.3566 26.2867 49.5834C27.6222 49.8103 29.0228 49.9399 30.5538 49.9399C31.9544 49.9399 33.1596 49.8427 34.1694 49.6158C35.1792 49.389 35.9609 49.0325 36.5798 48.514Z" fill="#AB00FF"/>
<path d="M43.3551 19.6388V17.4675C44.658 17.6619 45.9284 17.7916 47.1336 17.8888C48.3388 17.986 49.6092 18.0184 50.9121 18.0184C52.3779 18.0184 53.6157 17.986 54.6906 17.9212C55.733 17.8564 57.0033 17.7267 58.4691 17.4999V19.7361H55.961C55.5375 19.7361 55.1792 19.7685 54.9512 19.8333C54.7232 19.8981 54.3975 20.0277 54.0717 20.2546C53.7134 20.4814 53.4528 20.8379 53.2574 21.3565C53.062 21.875 52.9642 22.7176 52.9642 23.9166C52.9642 24.3379 52.9642 24.6296 52.9642 24.8565V42.1621C52.9642 43.7177 53.062 45.176 53.2574 46.6019C53.4528 48.0279 53.7134 48.9353 54.0717 49.2917C54.6581 49.9399 55.505 50.264 56.6125 50.264H58.86V52.3057C57.6548 52.176 56.3844 52.1112 55.0164 52.014C53.6483 51.9168 52.3128 51.9168 51.0098 51.9168C48.632 51.9168 46.0913 52.0464 43.3877 52.3057V50.1344H45.8632C46.3844 50.1344 46.7753 50.0696 47.101 49.9723C47.4268 49.8751 47.7525 49.6482 48.0457 49.2917C48.3714 48.9353 48.5668 48.4816 48.6971 47.8983C48.8274 47.3149 48.8926 46.6343 48.8926 45.889V26.9953C48.8926 24.8889 48.8274 23.3657 48.6971 22.3935C48.4691 20.7731 48.0457 19.8981 47.4593 19.7685C46.873 19.6388 46.2541 19.6064 45.7004 19.6064H43.3551V19.6388Z" fill="#AB00FF"/>
<path opacity="0.98" d="M4.07167 37.6576H0C1.27036 55.028 15.2443 68.8986 32.7362 70.13V66.0791C17.4919 64.8799 5.34203 52.792 4.07167 37.6576ZM0.0325735 32.1483H4.10424C5.5049 17.1436 17.5896 5.25003 32.7036 4.05094V0C15.342 1.23149 1.43323 14.9399 0.0325735 32.1483ZM66.417 37.6576C65.1793 52.6624 53.2248 64.6531 38.176 66.0467V70.0976C55.4724 68.6717 69.2184 54.8984 70.4887 37.6576H66.417ZM66.3845 32.1483H70.4561C69.0555 15.0695 55.3421 1.42593 38.176 0.0324081V4.08336C53.0946 5.47688 64.9838 17.3056 66.3845 32.1483Z" fill="#AB00FF"/>
</g>
<defs>
<clipPath id="clip0_1010_44">
<rect width="70.49" height="70.13" fill="white"/>
</clipPath>
</defs>
</svg>
